<?xml version="1.0" encoding="UTF-8"?>
<svg xmlns="http://www.w3.org/2000/svg" xmlns:xlink="http://www.w3.org/1999/xlink" width="87.1pt" height="19.4pt" viewBox="0 0 87.1 19.4" version="1.1">
<defs>
<clipPath id="clip1">
  <path d="M 0 0 L 87.101563 0 L 87.101563 19.398438 L 0 19.398438 Z M 0 0 "/>
</clipPath>
</defs>
<g id="surface1">
<g clip-path="url(#clip1)" clip-rule="nonzero">
<path style=" stroke:none;fill-rule:evenodd;fill:rgb(0%,0%,0%);fill-opacity:1;" d="M 87.140625 18.726563 L 84.753906 18.726563 L 80.703125 13.886719 L 76.648438 18.726563 L 74.285156 18.726563 L 79.511719 12.46875 L 74.570313 6.589844 L 76.953125 6.589844 L 80.691406 11.054688 L 84.417969 6.589844 L 86.78125 6.589844 L 81.878906 12.460938 Z M 60.34375 12.65625 C 60.34375 9.960938 61.972656 7.527344 64.464844 6.496094 C 66.964844 5.464844 69.832031 6.039063 71.738281 7.945313 C 73.644531 9.851563 74.21875 12.722656 73.1875 15.214844 C 72.15625 17.710938 69.722656 19.335938 67.023438 19.339844 C 63.339844 19.339844 60.34375 16.347656 60.34375 12.65625 Z M 62.539063 10.78125 C 60.898438 14.785156 64.898438 18.785156 68.898438 17.144531 C 72.121094 15.820313 72.964844 11.648438 70.496094 9.183594 C 68.035156 6.722656 63.859375 7.5625 62.539063 10.78125 Z M 51.53125 19.023438 L 51.539063 19.023438 Z M 46.675781 18.117188 L 46.675781 0.5 L 48.503906 0.5 L 48.503906 6.890625 C 49.453125 6.449219 50.492188 6.234375 51.539063 6.269531 C 55.226563 6.269531 58.21875 8.953125 58.21875 12.644531 C 58.21875 16.332031 55.21875 19.019531 51.53125 19.023438 C 47.796875 19.023438 46.675781 18.117188 46.675781 18.117188 Z M 51.53125 8.089844 L 51.539063 8.089844 Z M 48.503906 9.082031 L 48.503906 16.59375 C 49.441406 17.058594 50.488281 17.265625 51.539063 17.203125 C 54.214844 17.203125 56.398438 15.328125 56.398438 12.648438 C 56.398438 9.964844 54.222656 8.089844 51.539063 8.089844 C 50.453125 8.105469 49.390625 8.449219 48.503906 9.082031 Z M 42.425781 18.726563 L 40.601563 18.726563 L 40.601563 0.5 L 42.425781 0.5 Z M 36.351563 18.726563 L 34.527344 18.726563 L 34.527344 0.5 L 36.351563 0.5 Z M 29.300781 3.214844 C 27.421875 3.082031 27.421875 0.324219 29.300781 0.191406 C 30.175781 0.132813 30.921875 0.824219 30.921875 1.703125 C 30.921875 2.582031 30.175781 3.277344 29.300781 3.214844 Z M 23.285156 18.726563 L 16.910156 12.351563 L 22.675781 6.574219 L 25.257813 6.574219 L 19.484375 12.351563 L 25.859375 18.726563 Z M 15.085938 0.5 L 16.902344 0.5 L 16.902344 18.726563 L 15.085938 18.726563 Z M 5.917969 19.023438 C 3.683594 18.960938 1.566406 18.011719 0.0390625 16.386719 L 1.324219 14.960938 C 2.53125 16.109375 3.949219 17.226563 5.894531 17.226563 C 8.050781 17.226563 10.378906 16.011719 10.378906 13.835938 C 10.378906 12.035156 8.945313 10.859375 5.929688 9.929688 C 2.5 8.878906 0.75 7.453125 0.75 4.773438 C 0.75 2.121094 2.988281 -0.0546875 6.183594 -0.0546875 C 8.582031 -0.0546875 10.070313 0.964844 11.523438 2.261719 L 10.257813 3.671875 C 8.984375 2.539063 7.769531 1.773438 6.273438 1.773438 C 4.429688 1.773438 2.601563 2.96875 2.601563 4.683594 C 2.601563 6.238281 3.492188 7.226563 6.648438 8.195313 C 9.546875 9.085938 12.191406 10.46875 12.191406 13.769531 C 12.191406 16.8125 9.769531 19.023438 5.917969 19.023438 Z M 30.273438 18.726563 L 28.457031 18.726563 L 28.457031 6.574219 L 30.273438 6.574219 Z M 30.273438 18.726563 "/>
</g>
</g>
</svg>
